<?xml version="1.0" encoding="utf-8"?>
<!-- Generator: Adobe Illustrator 25.2.0, SVG Export Plug-In . SVG Version: 6.00 Build 0)  -->
<svg version="1.1" id="Layer_1" xmlns="http://www.w3.org/2000/svg" xmlns:xlink="http://www.w3.org/1999/xlink" x="0px" y="0px"
	 viewBox="0 0 211 30" style="enable-background:new 0 0 211 30;" xml:space="preserve">
<style type="text/css">
	.st0{fill:#FFFFFF;}
	.st1{fill-rule:evenodd;clip-rule:evenodd;fill:#037EF3;}
</style>
<desc>Created with Sketch.</desc>
<g id="Symbols">
	<g id="aiesec_logo_black">
		<g id="Aiesec-white">
			<rect id="Rectangle-path" x="14.2" y="1.7" class="st0" width="127.8" height="27.4"/>
			<path id="Shape" class="st1" d="M60.4,9.1l-1.3,13L59,23.4l-0.2,0.5l-0.1,0.5l-0.2,0.4L58.2,25l-0.3,0.3l-0.4,0.3L57,25.7
				L56.5,26L56.4,26l-0.2,0.2l-0.1,0.3L56,26.7v0.2l0.1,0.1l0.1,0.1l0.2,0.1h15.7l0.6-0.3l0.6-0.2l0.6-0.5l0.5-0.4l0.5-0.6l0.4-0.5
				l0.2-0.6l0.3-0.6l0.3-0.7l0.1-0.7l0.1-0.7v-0.2l-0.1-0.3v-0.1L76,20.7h-0.5l-0.2,0.2l-0.5,0.6l-0.6,0.7l-0.4,0.4l-0.5,0.4
				L73,23.4l-0.6,0.4l-0.7,0.4l-0.9,0.4l-0.9,0.3l-1,0.2l-1.1,0.2h-2l-0.5-0.1L64.9,25l-0.2-0.1l-0.1-0.2l-0.1-0.2l-0.1-0.2
				l-0.1-0.5v-0.6l0.1-0.9l0.4-5.9l0.1-0.4l0.1-0.3l0.1-0.2l0.3-0.2l0.2-0.2l0.4-0.1h0.5L67,15l0.7,0.1h1.1l0.5,0.2l0.5,0.2l0.4,0.3
				l0.3,0.4l0.3,0.5l0.2,0.3v0.4l0.2,0.6l0.1,0.2v0.1l0.1,0.1l0.2,0.2h0.2l0.2-0.2l0.1-0.1l0.1-0.1l0.1-0.3v-0.3l0.1-1.6l0.1-1.5
				l0.1-0.9l0.2-0.8V12l0.2-0.8v-0.7l-0.1-0.2l0-0.1h-0.1l-0.2-0.1l-0.2,0.1H72l-0.1,0.1l-0.2,0.4l-0.3,0.6l-0.3,0.6l-0.4,0.4
				l-0.5,0.4L69.8,13l-0.6,0.2l-0.7,0.1l-0.6,0.1h-2.1l-0.2-0.1l-0.2-0.1l-0.2-0.1v-0.4l0.6-6.1V6.1l0.1-0.4l0.1-0.3l0.1-0.2
				l0.1-0.2L66.7,5l0.2-0.1h2.6L70.8,5l1.1,0.1l0.5,0.1l0.3,0.2l0.4,0.1l0.3,0.2l0.3,0.2l0.2,0.3l0.2,0.2l0.1,0.4L74.4,7v0.2
				l0.1,0.9v0.2l0.1,0.3v0.2l0.1,0.1h0.2L75,9l0.3-0.1l0.2-0.1l0.1-0.2l0.1-0.2V7.1l0.1-0.5V6l0.1-0.6L76,4.8l0.1-0.6V3.3l-0.2-0.1
				h-0.2l-0.5-0.1h-17l-0.4,0.1h-0.2l-0.1,0.1l-0.1,0.2l-0.1,0.2v0.1L57.5,4l0.1,0.2l0.2,0.1l0.6,0.2l0.7,0.2h0.3l0.2,0.2l0.2,0.1
				L60,5.1L60,5.4l0.2,0.3l0.1,0.6L60.4,7L60.4,9.1L60.4,9.1z M77.9,20.9l0.7,4.9l0.1,0.1l0.1,0.1l0.3,0.2l0.3,0.1h0.3l1.5,0.5
				l1.5,0.4l0.7,0.1l0.8,0.2l0.8,0.1h1.7l1-0.2l0.8-0.2l0.8-0.3l0.7-0.4l0.7-0.5l0.6-0.5l0.7-0.6l0.5-0.5l0.5-0.6l0.4-0.7l0.4-0.6
				l0.3-0.7L94,21l0.2-0.6l0.1-0.7v-1.6l-0.2-0.7l-0.2-0.7l-0.2-0.7l-0.3-0.6l-0.4-0.4l-0.4-0.5l-0.5-0.5l-0.4-0.4l-0.5-0.3
				l-0.5-0.3l-1.1-0.6l-1.3-0.5l-2.3-0.9l-1-0.4l-0.9-0.5l-0.4-0.3l-0.4-0.3l-0.3-0.4l-0.3-0.3l-0.2-0.4l-0.1-0.5l-0.1-0.5l0.1-0.6
				V7.1l0.1-0.4l0.1-0.3l0.1-0.3l0.2-0.3l0.2-0.3l0.3-0.2l0.3-0.3l0.6-0.3l0.7-0.3l0.7-0.2l0.7-0.1l0.6,0.1l0.5,0.1l0.5,0.1l0.5,0.2
				l0.5,0.2l0.5,0.2l0.5,0.3l0.4,0.4L90.8,6l0.4,0.4l0.4,0.5l0.3,0.3l0.4,0.5l0.2,0.4l0.2,0.5l0.1,0.6l0.2,0.5l0.1,0.5l0.1,0.1
				l0.2,0.1l0.1,0.1h0.4l0.3-0.1l0.2-0.1l0.2-0.2V4.2L94.4,4l-0.1-0.4l-0.2-0.1h-0.2l-0.3,0.1l-0.4,0.1L92.7,4L92.3,4L91.9,4
				l-0.5-0.1l-1.2-0.6l-0.6-0.1l-0.9-0.3l-0.9-0.1l-1.1-0.2l-0.7,0.2l-0.7,0.1l-0.7,0.2l-0.7,0.2l-0.7,0.3L82.6,4L82,4.4l-0.5,0.5
				l-0.6,0.5l-0.4,0.4l-0.4,0.6l-0.4,0.6l-0.3,0.7l-0.2,0.6l-0.2,0.7v2.2l0.1,0.8l0.2,0.7l0.2,0.6l0.3,0.5l0.4,0.4l0.4,0.5l0.5,0.4
				l0.5,0.4l0.5,0.4l0.5,0.3l1.1,0.6l1.1,0.5L87,18l1.1,0.3l0.9,0.6l0.5,0.3l0.3,0.3l0.4,0.3l0.2,0.4l0.2,0.4l0.2,0.4v1.1l-0.1,0.4
				l-0.1,0.4l-0.1,0.5l-0.2,0.4L90.1,24l-0.3,0.3l-0.3,0.3l-0.3,0.3L88.9,25l-0.3,0.3l-0.4,0.1l-0.5,0.2l-0.4,0.2h-0.4L86,25.9h-0.6
				l-0.6-0.1l-0.5-0.1l-0.6-0.3l-0.5-0.2L82.8,25l-0.6-0.4L82,24.4L81.6,24l-0.4-0.4l-0.4-0.5l-0.3-0.4l-0.6-1l-0.5-0.9l-0.2-0.5
				l-0.2-0.5L79,19.6l-0.2-0.2l-0.1-0.1l-0.3-0.1l-0.4,0.1l-0.2,0.1l-0.1,0.2l-0.1,0.1V20l0.1,0.2L77.9,20.9z M98.6,9.1l-1.3,13v0.7
				l-0.1,0.6L97,23.9l-0.2,0.5l-0.2,0.4L96.3,25L96,25.3l-0.4,0.3l-0.5,0.2L94.7,26L94.5,26l-0.1,0.2l-0.2,0.3v0.4l0.1,0.1l0.1,0.1
				l0.2,0.1h15.7l0.5-0.3l0.7-0.2l0.5-0.5l0.4-0.4l0.5-0.6l0.4-0.5l0.2-0.6l0.6-1.3l0.2-0.7l0.1-0.7v-0.2l-0.1-0.3l-0.1-0.1v-0.1
				h-0.5l-0.2,0.2l-0.5,0.6l-0.6,0.7l-0.4,0.4l-0.4,0.4l-0.5,0.5l-0.6,0.4l-0.8,0.4l-0.8,0.4l-1,0.3l-1,0.2l-1.1,0.2H104l-0.5-0.1
				l-0.3-0.1l-0.2-0.1l-0.1-0.2l-0.2-0.2l-0.1-0.2l-0.1-0.5v-1.5l0.6-5.9l0.1-0.4l0.1-0.3l0-0.2l0.2-0.2l0.3-0.2l0.4-0.1h0.4
				l0.6-0.1l0.6,0.1h1.1l0.5,0.2l0.4,0.2l0.4,0.3l0.4,0.4l0.2,0.5l0.1,0.3l0.1,0.4l0.2,0.6l0.2,0.3v0.1l0.2,0.2h0.2l0.3-0.2v-0.1
				l0.2-0.1l0.1-0.3v-0.3l0.1-0.8v-0.7l0.1-1.5l0.2-1.7l0.1-1.5l0.1-0.4v-0.5l-0.1-0.1h-0.1l-0.2-0.1l-0.2,0.1h-0.2l-0.1,0.1
				l-0.2,0.4l-0.3,0.6l-0.3,0.6l-0.4,0.4l-0.4,0.4l-0.7,0.3l-0.6,0.2l-0.7,0.1l-0.6,0.1h-2l-0.3-0.1l-0.2-0.1l-0.2-0.1v-0.4l0.6-6.1
				V6.1l0.1-0.4l0.1-0.3l0.2-0.2l0.2-0.2l0.3-0.1l0.2-0.1h2.6l1.3,0.1l1.2,0.1l0.4,0.1l0.5,0.2l0.3,0.1l0.4,0.2l0.2,0.2l0.3,0.3
				l0.2,0.2l0.1,0.4l0.1,0.3l0.1,0.2l0.1,0.9v0.5l0.1,0.2l0.1,0.1h0.1l0.2,0.1l0.4-0.1l0.2-0.1l0.1-0.2l0.1-0.2V6.6L114,6l0.1-1.2
				l0.2-1.2V3.4l-0.1-0.1l-0.1-0.1h-0.2l-0.4-0.1h-17L96,3.2h-0.2l-0.1,0.1l-0.1,0.2l-0.1,0.2v0.1L95.7,4l0.2,0.2l0.1,0.1l0.6,0.2
				l0.7,0.2h0.3l0.2,0.2l0.2,0.1l0.2,0.2l0.2,0.3l0.1,0.3l0.2,0.6L98.6,7L98.6,9.1L98.6,9.1z M43.4,27.1h10l0.2-0.1l0.2-0.1l0.2-0.1
				l0.1-0.2L54,26.2L53.9,26l-0.2-0.2h-0.6l-0.4-0.2l-0.5-0.2l-0.4-0.3l-0.4-0.4l-0.2-0.2l-0.1-0.3L51.1,24l-0.2-0.4v-0.7l1.5-15.7
				l0.1-0.8l0.1-0.5l0.1-0.4L53,5.2l0.3-0.3l0.4-0.3l0.5-0.2l0.7-0.3L55,4L55.2,4l0.2-0.2V3.4l-0.1-0.2l-0.1-0.1h-0.1l-0.3-0.1h-9.6
				l-0.6,0.1h-0.3l-0.2,0.1l-0.1,0.2L44,3.6V4l0.1,0.2l0.3,0.2h0.3l0.5,0.1l0.6,0.1l0.4,0.2L46.5,5l0.2,0.5L47,5.9l0.2,0.5l-0.1,0.7
				l-1.4,15.7l-0.1,0.4l-0.2,0.6l-0.2,0.5l-0.2,0.5l-0.4,0.5l-0.2,0.2l-0.1,0.2l-0.3,0.1l-0.3,0.1L43.7,26h-0.3L43,25.9l-0.2-0.1
				l-0.2-0.1l-0.3-0.2L42,25l-0.2-0.5L41.5,24l-0.4-0.6L41,22.4l-7-18.9L33.8,3l-0.2-0.2l-0.1-0.2l-0.3,0.2L33,3l-0.3,0.3L32.5,4
				L20.8,24.1l-0.2,0.5l-0.3,0.4l-0.3,0.3l-0.4,0.4l-0.4,0.2L18.7,26L18.3,26l-0.1,0.2l-0.2,0.3V27l0.1,0.1l0.1,0.1h8.4l0.1-0.1
				l0.1-0.1v-0.5l-0.2-0.3l-0.2-0.2L26.2,26l-0.7-0.2l-0.8-0.2l-0.5-0.3l-0.4-0.4l-0.2-0.2l-0.1-0.2l-0.1-0.2v-0.3l0.1-0.6l0.2-0.8
				l0.3-0.7l0.4-0.9l0.5-0.7l0.4-0.2l0.2-0.3l0.3-0.3l0.3-0.2l0.3-0.1h6.6l0.8,0.1l0.3,0.1l0.2,0.1l0.2,0.2l0.2,0.1l0.2,0.4l0.2,0.4
				l0.4,1.4l0.4,1.1l0.1,0.6V24l-0.1,0.4l0,0.4L35.4,25l-0.2,0.3L35,25.5l-0.2,0.2l-0.3,0.1L34.1,26l-0.4,0.1l-0.3,0.1l-0.2,0.2
				l-0.1,0.1l-0.1,0.1v0.2l0.2,0.2l0.2,0.1L43.4,27.1L43.4,27.1z M27.4,15.8l2.6-4.8l0.2-0.5l0.2-0.3v-0.1h0.3l0.2,0.1l0.4,0.5
				l1.9,4.8l0.4,0.9l0.1,0.3V17h-0.1l-0.1,0.1h-0.2l-0.5,0.1h-5.1l-0.4-0.1h-0.2L27.1,17L27,16.9v-0.2l0.1-0.3l0.2-0.3L27.4,15.8z
				 M198.4,6.5l0.1-0.3l0.2-0.3l0.3-0.6l0.4-0.5l0.2-0.3l0.1-0.3l0.2-0.6V1.2l0.1-0.4l0.1-0.3l0.1-0.1l0.3-0.2l0.2-0.1l0.4-0.1
				l0.4-0.1l0.5,0.1l0.3,0.1l0.4,0.1l0.3,0.3l0.1,0.2l0.1,0.2l0.1,0.4l0.1,0.3v0.7l-0.2,0.6l-0.2,0.5l-0.2,0.5l-0.2,0.3L202,4.2
				l-0.2,0.1h-0.1l-0.2-0.1l-0.1,0.5l0,0.4v0.5l0.1,0.5l0.3,0.8l0.2,0.3l0.1,0.5l0.1,0.4v1.9l0.1,0.5l0.1,0.2l0.1,0.3l0.6,0.7l0.9,1
				l0.6,0.4l0.8,0.5l0.6,0.5l0.2,0.2l0.1,0.2l0.1,0.2v0.2l-0.1,0.2l-0.2,0.1l-0.3,0.2h-0.3l-0.5,0.1l-0.1-0.3l-0.2-0.4l-0.3-0.4
				l-0.4-0.3l-0.4-0.4l-0.5-0.3l-0.5-0.3l-0.4-0.2v1.7l0.2,0.8l0.3,0.6l0.2,0.7l0.3,1l0.7,1.9l0.6,1.6l0.3,0.7l0.1,0.4l0.4,1.3
				l0.4,1.1l0.5,1l0.7,1.4l0.1,0.2l0.2,0.2l0.2,0.1l0.3,0h1.1l0.6,0l0.4,0l0.2,0.1l0.1,0.1l0.1,0.2v0.2l-1.1,0.3l-0.8,0.3l-1,0.3
				l-0.6,0.3l-0.3,0.1H206l-0.1-0.1l-0.1-0.2l-0.1-0.1l-0.1-0.4l-0.2-0.5l-0.5-1.1l-0.6-1.1l-0.6-1l-0.5-1.1l-0.4-0.6l-0.4-0.7
				l-0.9-1.3l-0.4-0.6l-0.4-0.6l-0.2-0.7l-0.2-0.3v-0.4l-0.1,0.7l-0.2,0.6l-0.2,0.6l-0.2,0.6l-0.6,1l-0.7,0.8l-1.3,2l-0.7,0.9
				l-0.6,1.1l-0.2,0.4l-0.1,0.2V28l0.1,0.3l0.1,0.2l0.1,0.2l0.4,0.3l0.3,0.3l0.3,0.3l0.1,0.1l-0.1,0.1l-0.1,0.1l-0.2,0.1l-0.2,0.1
				h-0.7l-0.2-0.1l-0.2-0.1l-0.4-0.4l-0.6-0.6l-0.5-0.5l-0.2-0.4l-0.2-0.2v-0.2l0.1-0.4l0.4-0.6l0.3-0.4l0.1-0.3l0.6-0.7l0.6-0.9
				l0.4-0.9l0.4-1l0.3-0.8l0.3-0.6l0.2-0.7l0.1-0.5v-0.6l0.5-3.1l0.2-1.7l0.1-1.6l-0.2,0.5l-0.2,0.5L197,15l-0.2,1.2l-0.1,0.9
				l-0.5,0.2l-0.3,0.1l-0.3,0.1h-0.3l-0.2-0.1l-0.2-0.2l-0.1-0.4v-0.2l0.1-0.4l0.4-0.7l0.4-0.7l0.1-0.3l0-0.2l0.1-0.7l0.1-0.8
				l0.4-1.3l0.3-1.3l0.5-1.1l0.7-1.7l0.3-0.4L198.4,6.5L198.4,6.5z M138.6,8.5l-0.1-4.8V3.6l-0.1-0.1l-0.1-0.1l-0.2-0.1l-0.3,0.1
				l-0.3,0.1l-0.2,0.2L137.3,4l-0.2,0.2l-0.2,0.2l-0.2,0.2h-0.3L136,4.4l-0.6-0.2l-1.6-0.6l-1-0.4L131.6,3l-1.2-0.2h-0.7l-0.7-0.2
				l-1.1,0.2l-1.1,0.1l-1.2,0.2l-1,0.4l-1.1,0.5l-1.2,0.5l-1,0.6l-0.9,0.7l-0.5,0.5l-0.5,0.4L119,7l-0.6,0.4L118.1,8l-0.4,0.5
				l-0.4,0.6l-0.3,0.6l-0.4,0.7l-0.2,0.7l-0.3,0.8l-0.3,0.8l-0.2,0.7l-0.2,0.7l-0.1,0.9l-0.1,0.8v0.7l-0.1,0.7l0.1,0.7v0.5l0.1,0.6
				l0.2,0.6l0.2,0.6l0.1,0.5l0.3,0.6l0.2,0.5l0.6,0.9l0.6,0.8l0.7,0.7l0.8,0.7l0.9,0.6l0.9,0.5l1.1,0.6l1,0.4l1.1,0.2l1,0.2h2.4
				l0.6-0.1l0.6-0.2l1.2-0.3l1.1-0.4l1-0.4l0.9-0.5L134,25l0.7-0.6l0.7-0.5l0.6-0.6l0.5-0.6l0.5-0.6l0.4-0.5l0.3-0.4l0.1-0.4
				l0.1-0.2v-0.3l-0.1-0.1l-0.1-0.1h-0.4l-0.2,0.1l-0.5,0.2l-0.4,0.4l-0.4,0.3l-0.7,0.7l-0.9,0.7l-0.9,0.6l-0.9,0.5l-1,0.4l-1,0.4
				l-1.1,0.2h-2l-0.7-0.2l-0.8-0.3l-0.7-0.4l-0.6-0.5l-0.7-0.6l-0.5-0.6l-0.5-0.7l-0.5-0.7l-0.4-0.8l-0.3-0.8l-0.3-1l-0.1-0.9
				l-0.1-1.1v-1.9l0.2-1.3l0.2-1.3l0.3-1.1l0.4-1l0.4-0.9l0.4-0.7l0.6-0.8l0.4-0.6l0.7-0.5l0.6-0.5l0.7-0.4l0.7-0.3l0.7-0.3l0.7-0.1
				l0.9-0.1l0.8-0.1l0.7,0.1h0.5l0.5,0.2l0.6,0.1l0.5,0.2l0.6,0.3l0.5,0.3l0.5,0.4l0.5,0.4l0.3,0.4l0.5,0.5l0.5,0.6l0.4,0.5l0.4,0.6
				l0.4,0.7l0.4,0.7l0.1,0.3l0.2,0.3l0.2,0.3l0.1,0.1l0.2,0.1l0.2-0.1l0.3-0.2l0.1-0.3v-0.2l0.1-0.4l-0.1-0.4L138.6,8.5L138.6,8.5z
				 M188.2,22l-0.2,0.7l-0.1,0.6l-0.3,1l-0.2,0.9l-0.2,2.4v0.3l0.1,0.2l0.1,0.1l0.2,0.2l0.4,0.3l0.5,0.3l0.8,0.4l0.2,0.2l0.1,0.1
				l-0.1,0.1h-0.1l-0.1,0.1h-3.7l-0.2-0.1l-0.1-0.1v-0.5l0.1-0.3l0.2-0.2l0.1-0.2l0.1-0.4v-0.5l0.1-0.7l-0.1-1.1l-0.1-1.1v-0.5
				l0.1-0.6l-1.3,0.7l-0.7,0.5l-0.3,0.4l-0.4,0.4l-0.2,0.1v0.1l-0.1,0.4l0.1,0.6l0.1,0.4l0.2,1v0.3l-0.1,0.2l-0.2,0.1l-0.1-0.1
				l-0.4-0.3l-0.5-0.7l-0.5-1.1l-0.4-0.5l0-0.3v-0.3l0-0.2l0.7-0.2l0.2-0.2l0.3-0.2l0.7-0.8l0.7-0.8l0.8-0.9l0.5-0.4l0.7-0.5
				l0.2-0.3l0.2-0.6l0.2-0.2l0.1-0.3v-0.3l-0.1-0.2l-0.5-1l-0.4-0.9l-0.4-1.1l-0.2-0.6l-0.2-0.7l-0.1-0.8v-0.7l0.1-0.5l0.2-0.6
				l0.2-0.5l0.1-0.6l0.1-0.6v-0.7l-0.2,0.2l-0.2,0.2l-0.2,0.5l-0.4,1.2l-0.4,1.1l-0.1,0.4l-0.1,0.3l-0.1,0.1l-0.2,0.3l-0.1,0.4
				l-0.2,0.1L183,15l-0.2,0.1l-0.3-0.1l-0.2-0.1l-0.1-0.2l-0.1-0.1l0.1-0.2l0.3-0.3l0.2-0.2l0.2-0.3l0.1-0.5l0.1-0.6l0.2-0.9v-0.1
				l0.3-1.1l0.2-0.6l0.6-1.2l0.3-0.7l0.2-0.7l0.2-0.5l0.1-0.7l0.1-0.5l0.2-0.3l0.1-0.3l0.4-0.6L186,4l0.2-0.7l0.2-0.7V2.2l0.1-0.4
				l0.1-0.4l0.1-0.4l0.2-0.4l0.4-0.3l0.3-0.2l0.2-0.1h0.2l0.5,0.1l0.3,0.1l0.2,0.1l0.1,0.2l0.2,0.4l0.2,0.3V2l0.1,0.2v0.2l-0.1,0.2
				v0.4l-0.1,0.2l-0.1,0.2l-0.2,0.2L189,3.6l-0.2,0.1l-0.2,0.2l-0.2-0.2v0.2h-0.2V4L188.2,4l-0.1,0.2l-0.1,0.2v0.1l0.1,0.1l0.2,0.4
				l0.4,0.9l0.4,0.8l0.3,0.6l0.1,0.4l-0.1,0.4L189,8.8l-0.2,0.4v0.1l-0.1,0.2l0.5,0.6l0.5,0.7l1.4,1.8l0.4,0.5l0.1,0.2l0.1,0.2v0.2
				l-0.1,0.2l-0.1,0.2l-0.2,0.2l-0.2,0.1h-0.2l-0.1-0.1l-0.1-0.1l-0.2-0.2v-0.4l-0.1-0.3l-0.3-0.4l-0.4-0.4l-0.5-0.4l-0.5-0.3
				l-0.5-0.5v0.9l0.1,0.6l0.2,0.9l0.3,1.3l0.2,1.2l0.1,1.2l0.2,1.7v1.8l-0.1,0.3l-0.1,0.3l-0.2,0.3l-0.3,0.3L188.2,22z M143.7,6
				l0.1,0.4l0.2,0.2V6.3l0.1-0.4l0.2-0.2l0.2-0.3l0.4-0.5l0.1-0.2l0.2-0.3l0.1-0.9V2.5l-0.3,0.7l-0.1,0.3L144.5,4l-0.1,0.2l-0.2,0.2
				L144,4.4l-0.2-0.1l-0.2,0.6l-0.1,0.5v0.3L143.7,6z M168.9,25.7l0.5,1.1l0.1,0.1l0.2,0.2h0.1l0.2,0.1l0.4,0.1h0.4l0.9-0.1h0.7v-2
				l0.1-0.9l0.2-1.2l0.1-0.9l0.1-0.6v-0.1l-0.1,0.1l-0.1,0.3l-0.2,0.2l-0.2,0.2l-0.4,0.2l-0.2,0.2l-1.1,1.2l-0.8,0.9L168.9,25.7z
				 M155.5,22.8l0.4,1l0.2,0.9l0.4-2l0.1-0.9v-0.4l-0.1,0.1l-0.4,0.4l-0.1,0.3L155.5,22.8z M143,24.9l-0.4,1.1l-0.1,0.5l-0.1,0.4
				l0.1,0.2l0.1,0.4l0.2,0.2l0.2,0.3l0.5,0.4l0.6,0.5l-0.3-0.5l-0.2-0.3l-0.2-0.4v0l0.3-0.3l0.1-0.2L144,27l-0.2-0.5l-0.3-0.4
				L143,24.9z M153.5,13.6l-0.5-0.3l-0.4-0.2V14l0.1,0.6l0.1,0.8l0.2,0.7l0.4,1l0.4,0.9l0.9,2.2l0.3-0.6l0.2-1.1l0.2-1.1v-1.1
				l-0.1-0.2v-0.1l-0.1,0.1v0.1l0,0.3l-0.1,0.3l-0.2,0.4v0.1h-0.4l-0.4-0.1l-0.3-0.2l-0.1-0.2l-0.2-0.2v-0.4l0.1-0.5l0.1-0.4
				l-0.1-0.6L153.5,13.6z M150,21.3l0.9,1.8l0.3,0.7l0.1,0.3v0.4l0.7-0.9l0.7-0.9l-0.7-1l-0.6-0.9l-0.2-0.5l-0.2-0.5l-0.2-0.4v-0.6
				l-0.4,1.4l-0.2,0.6L150,21.3z M159.8,10.9l-0.2-0.2l-0.1-0.1l-0.5,4.5l0.1,2.3V21l0.2-0.4l0.2-0.5v-0.5l0.1-0.7l0.3-1.5l0.3-1.5
				l0.4-1.5v-0.8l0.1-0.8l-0.3-0.4l-0.4-0.6l-0.3-0.5L159.8,10.9L159.8,10.9z M148.9,28.7L148.9,28.7l0.1,0.2l0.2,0.1l0.5,0.1
				l0.8,0.1l-0.4-0.7l-0.9-2.2l0.6-0.5l-0.2-0.6l-0.2-0.6L149,24l-0.2-0.2l-0.1-0.2l-0.2,0.3l-0.2,0.2l-0.2,0.2l-0.3,0.3v1.6
				l0.1,0.8l0.1,0.4l0.1,0.3h0.5l0.2,0.1h0.2l0.1,0.2l0.2,0.1v0.2l0.2,0.3h-0.3L148.9,28.7z M146.4,27.9l-0.1-0.4v-0.6l-0.2,0.3
				l-0.3,0.5L146.4,27.9z M145.7,24.1l-0.4-0.8l-0.5-1l-0.3,0.4l0.2,0.3l0.2,0.4l0.2,0.9l0.2,0.7L145.7,24.1z M139.1,25.1l0.3,0
				l0.3,0.1l0.3,0.2l0.2,0.2l0.2,0.2l0.2,0.3l0.1,0.3l0,0.3l0,0.3l-0.1,0.3l-0.2,0.3l-0.2,0.2l-0.2,0.2l-0.3,0.1l-0.3,0.1h-0.6
				l-0.3-0.1l-0.2-0.1l-0.2-0.2l-0.2-0.2l-0.2-0.3l-0.1-0.3v-0.6l0.1-0.3l0.2-0.3l0.2-0.2l0.2-0.2l0.2-0.2l0.3-0.1L139.1,25.1z
				 M139.1,25.3l-0.3,0l-0.3,0.1l-0.2,0.1l-0.2,0.2l-0.2,0.2l-0.2,0.2l-0.1,0.3l0,0.3l0,0.3l0.1,0.3l0.2,0.2l0.2,0.2l0.2,0.2
				l0.2,0.1l0.3,0.1l0.3,0l0.3,0l0.3-0.1l0.2-0.1l0.2-0.2l0.2-0.2l0.1-0.2l0.1-0.3l0-0.3l0-0.3l-0.1-0.3l-0.1-0.2l-0.2-0.2l-0.2-0.2
				l-0.2-0.1l-0.3-0.1L139.1,25.3z M139.9,26.3l0-0.1l0-0.2l-0.1-0.1l-0.1-0.1l-0.1,0l-0.2-0.1h-0.1l-0.1,0l-0.2,0l-0.2,0.1
				l-0.2,0.1l-0.2,0.1l-0.1,0.2l-0.1,0.2l0,0.2v0.4l0,0.2l0.1,0.2l0.1,0.2l0.2,0.1l0.2,0.1l0.2,0.1h0.4l0.1,0l0.2-0.1l0.1-0.1
				l0.1-0.1l0.1-0.1l0-0.2l0-0.2h-0.2l0,0.2l-0.2,0.2l-0.1,0.1l-0.1,0l-0.1,0H139l-0.2-0.1l-0.1-0.1l-0.1-0.1l-0.1-0.2l-0.1-0.1
				l0-0.2v-0.3l0-0.2l0.1-0.2l0.1-0.1l0.1-0.1l0.1-0.1l0.2,0l0.2,0l0.2,0l0.2,0.1l0.2,0.1l0.1,0.2L139.9,26.3z M0,0.1h142.5l1,0.1
				h0.5l0.4,0.1l0.3,0.2l0.2,0.2l0.2,0.2l0.1,0.3l0.1-0.2l0.2-0.3l0.2-0.2l0.2-0.2l0.5-0.1l0.4-0.1l0.4,0.1l0.4,0.1l0.3,0.1l0.2,0.2
				l0.2,0.3l0.1,0.2l0.1,0.3v1.1L148.1,3l-0.2,0.4L147.6,4l-0.3,0.3l-0.2,0.1L147,4.4l-0.2,0.1l-0.2-0.1l0.1,0.5l0.1,0.5l0.2,0.4
				l0.2,0.4l0.4,0.8l0.4,0.5l0.1,0.5l0.1,0.2l0.5-1.1l0.1-0.3l0.1-0.3l0.1-0.3l0.2-0.3l0.4-0.6l0.3-0.5l0.1-0.3l0.1-0.4l0.2-0.6V3.1
				L150,1.8V1.3l0.2-0.5l0.1-0.2l0.2-0.2l0.2-0.2l0.3-0.1l0.4-0.1h0.7l0.3,0.1l0.4,0.2l0.2,0.2l0.2,0.3l0.1,0.2l0.1,0.3l0.1,0.4v0.6
				l-0.1,0.6l-0.2,0.5l-0.3,0.5l-0.3,0.4l-0.2,0.1l-0.1,0.1H152L152,4.4l-0.2,0.8l-0.1,0.3l0.1,0.2l0.1,0.5l0.3,0.8l0.2,0.3l0.2,0.5
				v0.4l0.1,0.6v1.8l0.1,0.2l0.2,0.2l0.4,0.6V11l0.1-0.4l0.9-2.7l0.5-1.3l0.2-0.5l0.2-0.3l0.6-0.5l0.7-0.5l0.6-0.5l0.4-0.4l0.2-0.2
				V3.5L157.6,3l-0.1-0.6l-0.1-0.6l0.2-0.6l0.2-0.3l0.2-0.3l0.3-0.3l0.3-0.2l0.4-0.1h0.5l0.4,0.1l0.4,0.1l0.3,0.2l0.2,0.2l0,0.3
				l0.1,0.4v1.5l-0.1,0.4l-0.2,0.2l-0.1,0.3L160.2,4L160,4h-0.2l-0.3,0.1h-0.3l-0.1,0.1v0.1l0.1,0.2v0.3L159.2,5v0.1l0.1,0.3
				l0.1,0.3l0.1,0.4l0.2,1l0.2,0.7l0.3,0.7l0.2-0.5l0.1-0.5l0.3-0.4l0.3-0.5l0.1-0.5l0.1-0.7l0.4-2l0.3-0.9l0.3-1l0.2-0.3l0.2-0.4
				l0.3-0.3l0.3-0.1l0.4-0.1h0.7l0.3,0.1l0.4,0.2l0.3,0.2l0.1,0.3l0.2,0.2l0.1,0.6v0.7l-0.1,0.5l-0.2,0.5l-0.1,0.4l-0.4,0.4
				l-0.1,0.1h-0.2l-0.2,0.1l-0.2-0.1L164,5.1v0.5l0.1,0.5l0.2,0.6l0.7,1.2l0.3,0.6v0.3l0,0.2l0,0.2l-0.2,0.6l-0.1,0.5l-0.1,0.3v0.2
				l0.2,0.2l0.2,0.3l0.4,0.5l1,0.8l0.5,0.2l0.8,0.5l0.7,0.5l0.2,0.2l0.1,0.2l0.1,0.3l-0.1,0.2l-0.1,0.2l-0.1,0.2l-0.3,0.1h-0.7
				l-0.1-0.3l-0.3-0.4l-0.2-0.3l-0.4-0.4l-0.4-0.3l-0.5-0.3l-0.4-0.2l-0.5-0.3l0.1,1v0.7l0.2,0.6l0.2,0.9l0.6,1.6l0.7,1.9l0.5,1.7
				l0.3,0.6l0.1,0.4l0.3,0.8l0.3,0.6l1.6-2.2l1-1.1l0.2-0.3l0.1-0.6l0.3-1.3l0.3-1.3l0.1-0.4l-0.3-0.7l-0.2-0.6v-0.5l0.4-1.1
				l0.2-0.7v-0.3l0.2-1v-0.7h-0.2l-0.1,0.6l-0.6,1.2l-0.2,0.6l-0.1,0.6l-0.1,0.6v0.7l-0.1,0.4l-0.2,0.2l-0.1,0.2l-0.2,0.2l-0.3,0.4
				h-0.3l-0.1-0.2l-0.2-0.1l-0.2-0.2l-0.2-0.2v-0.4l0.3-0.3l0.2-0.2l0.1-0.2v-0.2l-0.1-0.6v-1.3l0.2-1.3l0.1-0.8l0.2-0.5l0.4-1.2
				l0.6-1.1l0.5-1.3l0.4-0.7l0.5-0.5l0.5-0.4l0.3-0.3l0.2-0.2l0.2-0.2l0.1-0.1V3.9l-0.1-0.3l-0.1-0.4l-0.1-0.4V2.4L173.2,2l0.1-0.5
				l0.1-0.4l0.3-0.5l0.1-0.2l0.2-0.2l0.2-0.1l0.2-0.1l0.4-0.1l0.4,0.1l0.4,0.1l0.2,0.1l0.6,0.3h0.2l0,0.2l0.1,0.2l0.1,0.3l0.2,0.3
				v0.6l-0.2,0.3l-0.2,0.6l0,0.2l-0.2,0.3l-0.2,0.3L175.8,4l-0.3,0.1l-0.3,0.1h-0.1v0.1l-0.1,0.3l0.1,0.4v0.2l-0.1,0.2v2.6l0.1,0.9
				l0.2,0.7l0.2,0.4l0.1,0.2l0.1,0.1l0.7-0.5l0.9-0.7l1.1-0.7l3.1,3.9l-2.1,1.8l0.1,0.2v0.2h-0.1v0.1l-0.3,0.2l-0.1,0.2l-0.2,0.2
				l-0.2,0.1h-0.4l-0.2-0.2l-1.8,1.5l-1.1-1.4l0.1,0.4l0.1,1.1v1.6l-0.1,0.9l-0.2,0.9l0.1,0.9v1.1l-0.1,0.2l-0.1,0.2l-0.5,2.6
				l-0.2,1.8l-0.1,0.6v0.6l0.4,0.4l0.4,0.3l0.4,0.3l0.2,0.1h0.4l0.3,0.1l0.4,0.2l0.1,0.1v0.2l-0.1,0.1l-0.2,0.1h-4.3l-0.1-0.1v-0.1
				l-0.1-0.1l0.1-0.2V29l0.1-0.7l-1.2,0.4l-1.1,0.5l-0.4,0.2l-0.3,0.2l-0.3,0.2h-0.4l-0.2-0.2l-0.1-0.2V29l-0.1-0.5l-0.1-0.5
				l-0.5-0.8l-0.1,0.2l-0.1,0.2l-0.1,0.5l0.1,0.5l0.1,0.5v0.2l0.1,0.1l0.4,0.1l0.3,0.2l0.1,0.1l0.1,0.2h-0.1l-0.1,0.1h-0.7l-0.5-0.1
				l-0.3-0.1l-0.2-0.1l-0.2-0.2l-0.2-0.2l-0.3-0.6l-0.4-0.5l-0.6-1.1L165,27v-0.2l0.1-0.2l0.2-0.1l0.4-0.5l0.6-0.4l0.2-0.1l0.1-0.2
				l-0.4-0.9l-0.4-0.9l-0.4-0.7l-0.4-0.7l-1.1-1.5l-0.4-0.7l-0.4-0.8l-0.3-0.8v-0.4l-0.1-0.3l-0.1,0.7l-0.2,0.6l-0.3,0.6l-0.3,0.6
				l-0.6,1.1l-0.7,1l-0.7,1.1l-0.7,1l-0.3,0.6l-0.3,0.6l-0.2,0.6l-0.2,0.7l-0.1,0.5v0.4h0.8l0.7-0.1h0.4l0.2,0.1l0.1,0.1v0.4
				l-0.4,0.3l-0.8,0.5l0.2,0.2h0.4l0.4,0.1l0.2,0.1l0.1,0.3v0.1l-0.1,0.1l-0.2,0.1H156l-0.1-0.1l-0.1-0.2V29l0.1-0.7l-0.6-0.7
				l-0.6-0.9l-0.5-0.9l-0.5-1l-1,1.1l-0.5,0.7l-0.2,0.2l-0.1,0.2l-0.1,0.1l0.1,0.2l0.1,0.2l0.2,0.2l0.2,0.1l0.3,0.1h1.5l0.6-0.1
				l0.6,0.1h0.1l0.2,0.1l0.1,0.2v0.2l-0.1,0.2l-0.1,0.1l-0.4,0.2l-0.7,0.4l-0.6,0.3l-0.5,0.3l-0.4,0.1l-0.4,0.1l-0.4,0.1h-0.7
				l-0.2-0.1l-0.1-0.1l-0.1-0.2v0.1l-0.1,0.2h-0.2l-0.4,0.1H145l-0.1-0.1l0-0.2l-0.1,0.2l-0.1,0.1h-1.2l-1-0.1H0V1.5V0.1z"/>
		</g>
	</g>
</g>
</svg>
