<svg id="Layer_1" data-name="Layer 1" xmlns="http://www.w3.org/2000/svg" viewBox="0 0 1400.47 2396.43"><defs><style>.cls-1{fill:#037ef3;}</style></defs><path class="cls-1" d="M.47,0h1400c-.11,4.66-.32,9.32-.32,14q0,1084.46,0,2168.92c0,5.67.14,11.34-.07,17-2.23,60.54-25.72,111.1-72.21,150.17-36.81,30.94-79.69,46.25-127.9,46.25H791c-197,0-394,.3-591-.16-70.82-.17-126.44-31-166.48-89.07-24-34.78-33.53-74-33.52-116.2Q.29,1100.94.15,11C.15,7.32.36,3.66.47,0ZM558.54,1190.6l1.7,0a35.89,35.89,0,0,1,.24,3.87c-1,26-1.65,51.94-3.27,77.86-.74,11.92.29,24-2.66,35.77q-3.4,13.53-7,27A586.24,586.24,0,0,0,529,1453.17c-1.82,32.22-5.22,64.28-9.51,96.23-3.75,28-8.93,55.78-13.3,83.69-2.25,14.34-7.18,26.78-17,38.34-20.14,23.75-33.43,52-47.44,79.62-14.15,27.89-27.41,56.26-43.94,82.88-8.62,13.87-17.52,27.51-29.68,38.75a72,72,0,0,0-15.45,20.74c-6.54,13.07-5.9,25.81,2.45,37.77a118,118,0,0,0,12.33,14.41c19.06,19.63,40.23,37,60.81,54.92a104.33,104.33,0,0,0,18.9,13c12.06,6.53,24.78,7.11,37.85,4.15a18.94,18.94,0,0,0,9.6-5.07c4.54-4.63,4.77-8.33-.11-12.8a57.27,57.27,0,0,0-12.09-8.78c-9.65-5-15.93-12.7-20.72-22.18a163,163,0,0,1-8.94-20c-9.65-27.8-9.09-33.15,7.58-57.58,30.6-44.85,61.17-89.72,92.18-134.27,26.58-38.19,48.52-78.6,64.19-122.55,13.29-37.31,26.15-74.76,39.45-112.06,3.51-9.85,7.18-19.65,10.91-29.87,2.62,1.81,2.87,3.89,3.66,5.68,5.28,11.85,10.29,23.84,16,35.49,30,61.32,63.76,120.64,96.34,180.59,8.09,14.89,17.67,29.07,23.23,45.22,3.69,10.71,7.73,21.26,12.24,31.63,19.18,44,42.86,85.74,66.3,127.53,10.49,18.71,19.84,37.6,23.8,58.85a53.63,53.63,0,0,0,5.78,15.89c5.15,9.45,10.58,12.34,21.21,11.08a61.72,61.72,0,0,0,20.82-6.76c33.17-17,68.6-27.23,104.58-36,12.6-3.07,25.33-5.85,37.37-10.88,4.61-1.93,10-3.74,10.74-9.39.78-6.38-3.93-10.3-8.8-13.43a51.06,51.06,0,0,0-8.9-4.46,58.9,58.9,0,0,0-25.43-3.83c-22.6,1.19-45.2,1.64-67.86.68-15.65-.66-26.94-6.24-35-20.31-12.78-22.33-23.27-45.6-32.82-69.41-23-57.43-40.55-116.83-63.6-174.29-19.67-49.06-33.4-100.31-50.4-150.38-20.74-61.1-41.11-122.34-67.57-181.31-1.08-2.42-2.31-4.71-2.28-7.54.14-17,.14-34,.29-51a3.28,3.28,0,0,1,2.52-3.68A113.65,113.65,0,0,1,771.93,1273c18.66,11.65,37,23.72,54.87,36.6,21.59,15.57,40.63,33.43,53.25,57.31.78,1.47,1.74,2.84,2.63,4.25,5,7.86,12.25,12.09,21.29,13.35,12.66,1.75,24.45-1,35.65-7a20.23,20.23,0,0,0,9.75-12.17,37.85,37.85,0,0,0-1-27.2c-4.76-11.15-13.85-17.51-24.38-22.46-14.78-6.94-29.36-14.12-41.78-25.16-43.59-38.73-86.71-78-128.18-119-2.48-2.44-4.08-4.85-4.36-8.53-.75-10-2.16-19.88-2.87-29.78-2-27.58-5.34-55-8.7-82.39-3.9-31.72-8.62-63.3-17.73-94-4.75-16-9.46-32-8.11-48.92.84-10.57.91-21.33,5.33-31.29,3.44-7.74,7-9.7,15.64-8.84,8.91.88,16.31-2.35,22.79-8.12,8.4-7.48,13.9-17,18.16-27.19a168.24,168.24,0,0,0,12.41-79.18C783.77,718.44,765.34,690,726,680.76c-44.17-10.33-84.89,23.9-90.48,56.22-.85,4.9-1.44,9.86-2.21,14.77a112.86,112.86,0,0,0,0,36.77c4.81,28.21,4.41,56.17-2.93,84-3.34,12.69-9.3,23.35-19.93,31.31-4,3-7.59,6.49-11.34,9.8C568,941.09,545.2,974,532.22,1013.71,522,1045,512.89,1076.59,504.1,1108.3c-6.66,24-14.41,47.84-19.46,72.29-9,43.31-17.06,86.8-25.91,130.13-4.25,20.86-9.69,41.24-20.57,60.1a92.39,92.39,0,0,0-11.52,59.72c1.77,13,10.45,23.22,21.88,25.59,20.51,4.25,40.11-7.64,45.46-27.81a159.11,159.11,0,0,0,4.54-28.53c.92-11.92.92-23.92,3.77-35.69,9.33-38.52,22.51-75.84,35.12-113.33C544.18,1230.62,551.48,1210.65,558.54,1190.6Z"/></svg>